<svg width="200" height="100" viewBox="0 0 200 100" fill="none" xmlns="http://www.w3.org/2000/svg">
<rect width="200" height="100" fill="white"/>
<path d="M20.5 26.9721V73.576C20.5 76.5379 23.6069 78.4724 26.2649 77.1656L73.2604 54.0595C76.2294 52.5997 76.2436 48.3718 73.2844 46.8922L26.2889 23.3944C23.6293 22.0646 20.5 23.9986 20.5 26.9721Z" fill="#2F4244" stroke="#385153" stroke-width="4"/>
<path d="M91.9318 33.0341V29.9091H113.75V33.0341H104.602V59H101.08V33.0341H91.9318ZM116.467 59V37.1818H119.705V40.4773H119.933C120.33 39.3977 121.05 38.5218 122.092 37.8494C123.133 37.1771 124.308 36.8409 125.614 36.8409C125.861 36.8409 126.168 36.8456 126.538 36.8551C126.907 36.8646 127.186 36.8788 127.376 36.8977V40.3068C127.262 40.2784 127.002 40.2358 126.594 40.179C126.197 40.1127 125.775 40.0795 125.33 40.0795C124.27 40.0795 123.323 40.3021 122.489 40.7472C121.665 41.1828 121.012 41.7888 120.529 42.5653C120.056 43.3324 119.819 44.2083 119.819 45.1932V59H116.467ZM134.173 67.1818C133.604 67.1818 133.098 67.1345 132.653 67.0398C132.208 66.9545 131.9 66.8693 131.729 66.7841L132.582 63.8295C133.396 64.0379 134.116 64.1136 134.741 64.0568C135.366 64 135.92 63.7206 136.403 63.2188C136.895 62.7263 137.345 61.9261 137.752 60.8182L138.377 59.1136L130.309 37.1818H133.945L139.968 54.5682H140.195L146.218 37.1818H149.854L140.593 62.1818C140.176 63.3087 139.66 64.2415 139.045 64.9801C138.429 65.7282 137.714 66.2822 136.9 66.642C136.095 67.0019 135.186 67.1818 134.173 67.1818ZM165.529 59V37.1818H168.881V59H165.529ZM167.234 33.5455C166.58 33.5455 166.017 33.3229 165.543 32.8778C165.079 32.4328 164.847 31.8977 164.847 31.2727C164.847 30.6477 165.079 30.1127 165.543 29.6676C166.017 29.2225 166.58 29 167.234 29C167.887 29 168.446 29.2225 168.91 29.6676C169.383 30.1127 169.62 30.6477 169.62 31.2727C169.62 31.8977 169.383 32.4328 168.91 32.8778C168.446 33.3229 167.887 33.5455 167.234 33.5455ZM184.51 37.1818V40.0227H173.203V37.1818H184.51ZM176.499 31.9545H179.851V52.75C179.851 53.697 179.988 54.4072 180.263 54.8807C180.547 55.3447 180.907 55.6572 181.342 55.8182C181.787 55.9697 182.256 56.0455 182.749 56.0455C183.118 56.0455 183.421 56.0265 183.658 55.9886C183.894 55.9413 184.084 55.9034 184.226 55.875L184.908 58.8864C184.68 58.9716 184.363 59.0568 183.956 59.142C183.549 59.2367 183.033 59.2841 182.408 59.2841C181.461 59.2841 180.533 59.0805 179.624 58.6733C178.724 58.2661 177.976 57.6458 177.379 56.8125C176.792 55.9792 176.499 54.928 176.499 53.6591V31.9545Z" fill="#2F4244"/>
</svg>
